HIERARCHY
ROOT hip
{
	OFFSET 0.000000 0.000000 0.000000 
	CHANNELS 6 Xposition Yposition Zposition Zrotation Xrotation Yrotation
	JOINT abdomen
	{
		OFFSET -0.000821 3.005590 0.001841 
		CHANNELS 3 Zrotation Xrotation Yrotation
		JOINT chest
		{
			OFFSET -0.000691 10.703000 -0.000315 
			CHANNELS 3 Zrotation Xrotation Yrotation
			JOINT neck
			{
				OFFSET 0.000000 12.027800 0.000574 
				CHANNELS 3 Zrotation Xrotation Yrotation
				JOINT head
				{
					OFFSET 0.000000 2.324290 0.001849 
					CHANNELS 3 Zrotation Xrotation Yrotation
					End Site
					{
						OFFSET 0.000000 8.337550 -0.000011 
					}
				}
			}
			JOINT lCollar
			{
				OFFSET 4.142280 8.713310 -1.748190 
				CHANNELS 3 Zrotation Xrotation Yrotation
				JOINT lShldr
				{
					OFFSET 3.198490 0.000000 0.000000 
					CHANNELS 3 Zrotation Xrotation Yrotation
					JOINT lForeArm
					{
						OFFSET 11.267400 0.131801 0.138382 
						CHANNELS 3 Zrotation Xrotation Yrotation
						JOINT lHand
						{
							OFFSET 10.433800 -0.078967 2.117880 
							CHANNELS 3 Zrotation Xrotation Yrotation
							End Site
							{
								OFFSET 5.536070 0.395145 1.598850 
							}
						}
					}
				}
			}
			JOINT rCollar
			{
				OFFSET -4.142280 8.713310 -1.748190 
				CHANNELS 3 Zrotation Xrotation Yrotation
				JOINT rShldr
				{
					OFFSET -3.198490 0.000000 0.000000 
					CHANNELS 3 Zrotation Xrotation Yrotation
					JOINT rForeArm
					{
						OFFSET -11.267400 0.131801 0.138378 
						CHANNELS 3 Zrotation Xrotation Yrotation
						JOINT rHand
						{
							OFFSET -10.433800 -0.078968 2.117910 
							CHANNELS 3 Zrotation Xrotation Yrotation
							End Site
							{
								OFFSET -5.536060 0.395145 1.598870 
							}
						}
					}
				}
			}
		}
	}
	JOINT lThigh
	{
		OFFSET 4.319220 0.000000 0.000000 
		CHANNELS 3 Zrotation Xrotation Yrotation
		JOINT lShin
		{
			OFFSET -1.084330 -20.014099 1.652440 
			CHANNELS 3 Zrotation Xrotation Yrotation
			JOINT lFoot
			{
				OFFSET -1.036480 -19.130800 -1.652470 
				CHANNELS 3 Zrotation Xrotation Yrotation
				JOINT lToe
				{
					OFFSET 0.062373 -5.141630 3.838810 
					CHANNELS 3 Zrotation Xrotation Yrotation
					End Site
					{
						OFFSET 0.000000 0.000000 2.702950 
					}
				}
			}
		}
	}
	JOINT rThigh
	{
		OFFSET -4.319220 0.000000 0.000000 
		CHANNELS 3 Zrotation Xrotation Yrotation
		JOINT rShin
		{
			OFFSET 1.084340 -20.014099 1.652400 
			CHANNELS 3 Zrotation Xrotation Yrotation
			JOINT rFoot
			{
				OFFSET 1.036480 -19.130800 -1.652410 
				CHANNELS 3 Zrotation Xrotation Yrotation
				JOINT rToe
				{
					OFFSET -0.188594 -3.213360 5.538430 
					CHANNELS 3 Zrotation Xrotation Yrotation
					End Site
					{
						OFFSET 0.000000 0.000000 2.702950 
					}
				}
			}
		}
	}
}
MOTION
Frames: 16
Frame Time: 0.033333
-0.066230 14.461300 -5.612940 -27.360901 -18.104700 -6.423410 17.218901 24.825500 -6.429510 18.579100 26.786301 -5.301200 4.411220 -6.343830 0.220373 -5.119540 6.131540 21.248301 -7.480450 3.258480 -23.407200 -51.057800 2.397270 -17.275000 -4.608730 2.131530 -59.781200 -31.240499 29.829700 17.164301 -0.447443 -0.072219 9.169840 123.818001 45.905800 -126.224998 3.735430 8.074300 122.343002 -20.173100 25.986601 -19.249201 82.758102 -68.388901 71.326698 172.796997 40.864498 -177.313995 -0.000002 0.000003 -0.000003 15.476600 -43.439701 27.320999 -2.914240 -11.219500 -37.342899 -172.804993 40.734200 177.326004 0.000004 0.000001 0.000001 -27.850300 -66.744904 -30.064899 
-0.066230 14.461300 -5.612940 -27.360901 -18.104700 -6.423410 17.218901 24.825500 -6.429510 18.579100 26.786301 -5.301200 4.411220 -6.343830 0.220373 -5.119540 6.131540 21.248301 -7.480450 3.258480 -23.407200 -51.057800 2.397270 -17.275000 -4.608730 2.131530 -59.781200 -31.240499 29.829700 17.164301 -0.078521 -0.013384 9.680730 120.689003 47.388401 -119.747002 3.985070 7.753140 118.300003 -19.144300 26.334999 -19.285000 82.758102 -68.388901 71.326698 172.796997 40.864498 -177.313995 -0.000002 0.000003 -0.000003 15.476600 -43.439701 27.320999 -2.914240 -11.219500 -37.342899 -172.804993 40.734200 177.326004 0.000004 0.000001 0.000001 -27.850300 -66.744904 -30.064899 
-0.066230 14.461300 -5.612940 -27.360901 -18.104700 -6.423410 17.218901 24.825500 -6.429510 18.579100 26.786301 -5.301200 4.411220 -6.343830 0.220373 -5.119540 6.131540 21.248301 -7.480450 3.258480 -23.407200 -51.057800 2.397270 -17.275000 -4.608730 2.131530 -59.781200 -31.240499 29.829700 17.164301 0.289106 0.051988 10.191200 117.193001 48.650398 -112.968002 4.211090 7.415270 114.262001 -18.109699 26.683599 -19.332100 82.758102 -68.388901 71.326698 172.796997 40.864498 -177.313995 -0.000002 0.000003 -0.000003 15.476600 -43.439701 27.320999 -2.914240 -11.219500 -37.342899 -172.804993 40.734200 177.326004 0.000004 0.000001 0.000001 -27.850300 -66.744904 -30.064899 
-0.066230 14.461300 -5.612940 -27.360901 -18.104700 -6.423410 17.218901 24.825500 -6.429510 18.579100 26.786301 -5.301200 4.411220 -6.343830 0.220373 -5.119540 6.131540 21.248301 -7.480450 3.258480 -23.407200 -51.057800 2.397270 -17.275000 -4.608730 2.131530 -59.781200 -31.240499 29.829700 17.164301 0.654885 0.123756 10.700400 113.362000 49.656700 -105.919998 4.412210 7.062850 110.232002 -17.070900 27.031500 -19.389900 82.758102 -68.388901 71.326698 172.796997 40.864498 -177.313995 -0.000002 0.000003 -0.000003 15.476600 -43.439701 27.320999 -2.914240 -11.219500 -37.342899 -172.804993 40.734200 177.326004 0.000004 0.000001 0.000001 -27.850300 -66.744904 -30.064899 
-0.066230 14.461300 -5.612940 -27.360901 -18.104700 -6.423410 17.218901 24.825500 -6.429510 18.579100 26.786301 -5.301200 4.411220 -6.343830 0.220373 -5.119540 6.131540 21.248301 -7.480450 3.258480 -23.407200 -51.057800 2.397270 -17.275000 -4.608730 2.131530 -59.781200 -31.240499 29.829700 17.164301 1.019740 0.202133 11.209800 109.236000 50.378700 -98.625900 4.588010 6.696720 106.199997 -16.025400 27.379400 -19.457899 82.758102 -68.388901 71.326698 172.796997 40.864498 -177.313995 -0.000002 0.000003 -0.000003 15.476600 -43.439701 27.320999 -2.914240 -11.219500 -37.342899 -172.804993 40.734200 177.326004 0.000004 0.000001 0.000001 -27.850300 -66.744904 -30.064899 
-0.066230 14.461300 -5.612940 -27.360901 -18.104700 -6.423410 17.218901 24.825500 -6.429510 18.579100 26.786301 -5.301200 4.411220 -6.343830 0.220373 -5.119540 6.131540 21.248301 -7.480450 3.258480 -23.407200 -51.057800 2.397270 -17.275000 -4.608730 2.131530 -59.781200 -31.240499 29.829700 17.164301 1.383120 0.286965 11.718600 104.889999 50.788399 -91.158401 4.737330 6.319150 102.170998 -14.974600 27.726500 -19.535700 82.758102 -68.388901 71.326698 172.796997 40.864498 -177.313995 -0.000002 0.000003 -0.000003 15.476600 -43.439701 27.320999 -2.914240 -11.219500 -37.342899 -172.804993 40.734200 177.326004 0.000004 0.000001 0.000001 -27.850300 -66.744904 -30.064899 
-0.066230 14.461300 -5.612940 -27.360901 -18.104700 -6.423410 17.218901 24.825500 -6.429510 18.579100 26.786301 -5.301200 4.411220 -6.343830 0.220373 -5.119540 6.131540 21.248301 -7.480450 3.258480 -23.407200 -51.057800 2.397270 -17.275000 -4.608730 2.131530 -59.781200 -31.240499 29.829700 17.164301 1.744500 0.378137 12.226100 100.417999 50.866901 -83.609299 4.859430 5.932600 98.151703 -13.920400 28.072001 -19.622601 82.758102 -68.388901 71.326698 172.796997 40.864498 -177.313995 -0.000002 0.000003 -0.000003 15.476600 -43.439701 27.320999 -2.914240 -11.219500 -37.342899 -172.804993 40.734200 177.326004 0.000004 0.000001 0.000001 -27.850300 -66.744904 -30.064899 
-0.066230 14.461300 -5.612940 -27.360901 -18.104700 -6.423410 17.218901 24.825500 -6.429510 18.579100 26.786301 -5.301200 4.411220 -6.343830 0.220373 -5.119540 6.131540 21.248301 -7.480450 3.258480 -23.407200 -51.057800 2.397270 -17.275000 -4.608730 2.131530 -59.781200 -31.240499 29.829700 17.164301 2.104770 0.475854 12.733600 95.906502 50.604599 -76.050499 4.954060 5.537910 94.129997 -12.860000 28.416700 -19.718201 82.758102 -68.388901 71.326698 172.796997 40.864498 -177.313995 -0.000002 0.000003 -0.000003 15.476600 -43.439701 27.320999 -2.914240 -11.219500 -37.342899 -172.804993 40.734200 177.326004 0.000004 0.000001 0.000001 -27.850300 -66.744904 -30.064899 
-0.066230 14.461300 -5.612940 -27.360901 -18.104700 -6.423410 17.218901 24.825500 -6.429510 18.579100 26.786301 -5.301200 4.411220 -6.343830 0.220373 -5.119540 6.131540 21.248301 -7.480450 3.258480 -23.407200 -51.057800 2.397270 -17.275000 -4.608730 2.131530 -59.781200 -31.240499 29.829700 17.164301 2.463400 0.579988 13.240300 91.462303 50.001801 -68.585503 5.020540 5.137570 90.111504 -11.795200 28.759899 -19.821800 82.758102 -68.388901 71.326698 172.796997 40.864498 -177.313995 -0.000002 0.000003 -0.000003 15.476600 -43.439701 27.320999 -2.914240 -11.219500 -37.342899 -172.804993 40.734200 177.326004 0.000004 0.000001 0.000001 -27.850300 -66.744904 -30.064899 
-0.066230 14.461300 -5.612940 -27.360901 -18.104700 -6.423410 17.218901 24.825500 -6.429510 18.579100 26.786301 -5.301200 4.411220 -6.343830 0.220373 -5.119540 6.131540 21.248301 -7.480450 3.258480 -23.407200 -51.057800 2.397270 -17.275000 -4.608730 2.131530 -59.781200 -31.240499 29.829700 17.164301 2.819860 0.690363 13.745500 87.181702 49.070000 -61.308201 5.058450 4.734160 86.101196 -10.727700 29.100800 -19.932800 82.758102 -68.388901 71.326698 172.796997 40.864498 -177.313995 -0.000002 0.000003 -0.000003 15.476600 -43.439701 27.320999 -2.914240 -11.219500 -37.342899 -172.804993 40.734200 177.326004 0.000004 0.000001 0.000001 -27.850300 -66.744904 -30.064899 
-0.066230 14.461300 -5.612940 -27.360901 -18.104700 -6.423410 17.218901 24.825500 -6.429510 18.579100 26.786301 -5.301200 4.411220 -6.343830 0.220373 -5.119540 6.131540 21.248301 -7.480450 3.258480 -23.407200 -51.057800 2.397270 -17.275000 -4.608730 2.131530 -59.781200 -31.240499 29.829700 17.164301 3.175040 0.807256 14.250600 83.127800 47.825298 -54.266399 5.068450 4.328510 82.088203 -9.654890 29.440201 -20.050900 82.758102 -68.388901 71.326698 172.796997 40.864498 -177.313995 -0.000002 0.000003 -0.000003 15.476600 -43.439701 27.320999 -2.914240 -11.219500 -37.342899 -172.804993 40.734200 177.326004 0.000004 0.000001 0.000001 -27.850300 -66.744904 -30.064899 
-0.066230 14.461300 -5.612940 -27.360901 -18.104700 -6.423410 17.218901 24.825500 -6.429510 18.579100 26.786301 -5.301200 4.411220 -6.343830 0.220373 -5.119540 6.131540 21.248301 -7.480450 3.258480 -23.407200 -51.057800 2.397270 -17.275000 -4.608730 2.131530 -59.781200 -31.240499 29.829700 17.164301 3.528430 0.930487 14.754800 79.360100 46.293301 -47.516602 5.049510 3.923260 78.077904 -8.578570 29.777500 -20.175200 82.758102 -68.388901 71.326698 172.796997 40.864498 -177.313995 -0.000002 0.000003 -0.000003 15.476600 -43.439701 27.320999 -2.914240 -11.219500 -37.342899 -172.804993 40.734200 177.326004 0.000004 0.000001 0.000001 -27.850300 -66.744904 -30.064899 
-0.066230 14.461300 -5.612940 -27.360901 -18.104700 -6.423410 17.218901 24.825500 -6.429510 18.579100 26.786301 -5.301200 4.411220 -6.343830 0.220373 -5.119540 6.131540 21.248301 -7.480450 3.258480 -23.407200 -51.057800 2.397270 -17.275000 -4.608730 2.131530 -59.781200 -31.240499 29.829700 17.164301 3.879480 1.059890 15.257300 75.915604 44.504799 -41.092701 5.002400 3.520910 74.075104 -7.500460 30.112000 -20.305000 82.758102 -68.388901 71.326698 172.796997 40.864498 -177.313995 -0.000002 0.000003 -0.000003 15.476600 -43.439701 27.320999 -2.914240 -11.219500 -37.342899 -172.804993 40.734200 177.326004 0.000004 0.000001 0.000001 -27.850300 -66.744904 -30.064899 
-0.066230 14.461300 -5.612940 -27.360901 -18.104700 -6.423410 17.218901 24.825500 -6.429510 18.579100 26.786301 -5.301200 4.411220 -6.343830 0.220373 -5.119540 6.131540 21.248301 -7.480450 3.258480 -23.407200 -51.057800 2.397270 -17.275000 -4.608730 2.131530 -59.781200 -31.240499 29.829700 17.164301 4.229100 1.195760 15.759600 72.799202 42.484600 -34.984001 4.927270 3.122310 70.068901 -6.417980 30.444599 -20.439899 82.758102 -68.388901 71.326698 172.796997 40.864498 -177.313995 -0.000002 0.000003 -0.000003 15.476600 -43.439701 27.320999 -2.914240 -11.219500 -37.342899 -172.804993 40.734200 177.326004 0.000004 0.000001 0.000001 -27.850300 -66.744904 -30.064899 
-0.066230 14.461300 -5.612940 -27.360901 -18.104700 -6.423410 17.218901 24.825500 -6.429510 18.579100 26.786301 -5.301200 4.411220 -6.343830 0.220373 -5.119540 6.131540 21.248301 -7.480450 3.258480 -23.407200 -51.057800 2.397270 -17.275000 -4.608730 2.131530 -59.781200 -31.240499 29.829700 17.164301 4.576760 1.337910 16.260799 70.015404 40.264500 -29.191500 4.824530 2.730060 66.064499 -5.332980 30.774700 -20.579300 82.758102 -68.388901 71.326698 172.796997 40.864498 -177.313995 -0.000002 0.000003 -0.000003 15.476600 -43.439701 27.320999 -2.914240 -11.219500 -37.342899 -172.804993 40.734200 177.326004 0.000004 0.000001 0.000001 -27.850300 -66.744904 -30.064899 
-0.066230 14.461300 -5.612940 -27.360901 -18.104700 -6.423410 17.218901 24.825500 -6.429510 18.579100 26.786301 -5.301200 4.411220 -6.343830 0.220373 -5.119540 6.131540 21.248301 -7.480450 3.258480 -23.407200 -51.057800 2.397270 -17.275000 -4.608730 2.131530 -59.781200 -31.240499 29.829700 17.164301 4.921940 1.486140 16.760300 67.556999 37.875702 -23.703899 4.694820 2.346520 62.067101 -4.247230 31.101700 -20.722200 82.758102 -68.388901 71.326698 172.796997 40.864498 -177.313995 -0.000002 0.000003 -0.000003 15.476600 -43.439701 27.320999 -2.914240 -11.219500 -37.342899 -172.804993 40.734200 177.326004 0.000004 0.000001 0.000001 -27.850300 -66.744904 -30.064899 
